<?xml version="1.0" encoding="UTF-8"?>
<svg id="Layer_1" xmlns="http://www.w3.org/2000/svg" version="1.1" viewBox="0 0 1920 1080">
  <!-- Generator: Adobe Illustrator 30.2.1, SVG Export Plug-In . SVG Version: 2.1.1 Build 1)  -->
  <defs>
    <style>
      .st0 {
        fill: #03d4c2;
      }

      .st1 {
        fill: #07c1e5;
      }

      .st2 {
        fill: #05cccf;
      }

      .st3 {
        fill: #05ccd1;
      }

      .st4 {
        fill: #08beea;
      }

      .st5 {
        fill: #05c9d5;
      }

      .st6 {
        fill: #02d7bb;
      }

      .st7 {
        fill: #07c2e2;
      }

      .st8 {
        fill: #03d5bf;
      }

      .st9 {
        fill: #01deae;
      }

      .st10 {
        fill: #02d8ba;
      }

      .st11 {
        fill: #03d2c4;
      }

      .st12 {
        fill: #03d6be;
      }

      .st13 {
        fill: #04cecd;
      }

      .st14 {
        fill: #01deb0;
      }

      .st15 {
        fill: #04cecb;
      }

      .st16 {
        fill: #01ddb0;
      }

      .st17 {
        fill: #02dbb5;
      }

      .st18 {
        fill: #03d2c6;
      }

      .st19 {
        fill: #00e0ac;
      }

      .st20 {
        fill: #06c5dc;
      }

      .st21 {
        fill: #02dab7;
      }

      .st22 {
        fill: #01dfad;
      }

      .st23 {
        fill: #01dcb2;
      }

      .st24 {
        fill: #07bfe8;
      }

      .st25 {
        fill: #06c7d8;
      }

      .st26 {
        fill: #05cbd1;
      }

      .st27 {
        fill: #03d6bf;
      }

      .st28 {
        fill: #06c4de;
      }

      .st29 {
        fill: #07c0e6;
      }

      .st30 {
        fill: #02d7bc;
      }

      .st31 {
        fill: #04d1c6;
      }

      .st32 {
        fill: #07c2e1;
      }

      .st33 {
        fill: #07bfe7;
      }

      .st34 {
        fill: #06c4df;
      }

      .st35 {
        fill: #02d9b8;
      }

      .st36 {
        fill: #06c8d8;
      }

      .st37 {
        fill: #05c8d7;
      }

      .st38 {
        fill: #00e1a9;
      }

      .st39 {
        fill: #04cfcb;
      }

      .st40 {
        fill: #04d1c8;
      }

      .st41 {
        fill: #03d3c4;
      }

      .st42 {
        fill: #03d2c5;
      }

      .st43 {
        fill: #05cdcf;
      }

      .st44 {
        fill: #01dfae;
      }

      .st45 {
        fill: #07c3e0;
      }

      .st46 {
        fill: #05cad4;
      }

      .st47 {
        fill: #04d0c9;
      }

      .st48 {
        fill: #01dcb4;
      }

      .st49 {
        fill: #04cdce;
      }

      .st50 {
        fill: #01dbb5;
      }

      .st51 {
        fill: #01ddb1;
      }

      .st52 {
        fill: #07c1e3;
      }

      .st53 {
        fill: #08bced;
      }

      .st54 {
        fill: #05ccd0;
      }

      .st55 {
        fill: #02d8bb;
      }

      .st56 {
        fill: #07c2e3;
      }

      .st57 {
        fill: #07c1e4;
      }

      .st58 {
        fill: #08bdea;
      }

      .st59 {
        fill: #03d5c0;
      }

      .st60 {
        fill: #08bdec;
      }

      .st61 {
        fill: #04cecc;
      }

      .st62 {
        fill: #08bee9;
      }

      .st63 {
        fill: #05c9d6;
      }

      .st64 {
        fill: #02d6bd;
      }

      .st65 {
        fill: #00e1aa;
      }

      .st66 {
        fill: #00e2a9;
      }

      .st67 {
        fill: #06c7da;
      }

      .st68 {
        fill: #01deaf;
      }

      .st69 {
        fill: #02dab6;
      }

      .st70 {
        fill: #05cbd2;
      }

      .st71 {
        fill: #06c6dc;
      }

      .st72 {
        fill: #06c6db;
      }

      .st73 {
        fill: #06c6da;
      }

      .st74 {
        fill: #01dcb3;
      }

      .st75 {
        fill: #07c3e1;
      }

      .st76 {
        fill: #06c7d9;
      }

      .st77 {
        fill: #02d9b9;
      }

      .st78 {
        fill: #03d1c6;
      }

      .st79 {
        fill: #07c0e5;
      }

      .st80 {
        fill: #04d1c7;
      }

      .st81 {
        fill: #02d8b9;
      }

      .st82 {
        fill: #02d7bd;
      }

      .st83 {
        fill: #07c0e7;
      }

      .st84 {
        fill: #04cdcd;
      }

      .st85 {
        fill: #05c8d6;
      }

      .st86 {
        fill: #01dbb4;
      }

      .st87 {
        fill: #04cfca;
      }

      .st88 {
        fill: #03d3c3;
      }

      .st89 {
        fill: #00e0ab;
      }

      .st90 {
        fill: #04cdcf;
      }

      .st91 {
        fill: #04d0c8;
      }

      .st92 {
        fill: #06c3e0;
      }

      .st93 {
        fill: #00e2a8;
      }

      .st94 {
        fill: #08bcec;
      }

      .st95 {
        fill: #04d0ca;
      }

      .st96 {
        fill: #00e1ab;
      }

      .st97 {
        fill: #05cad3;
      }

      .st98 {
        fill: #06c5dd;
      }

      .st99 {
        fill: #03d4c1;
      }

      .st100 {
        fill: #08bdeb;
      }

      .st101 {
        fill: #01ddb2;
      }
    </style>
  </defs>
  <circle class="st53" cx="1726.06" cy="1094.45" r="115.65"/>
  <circle class="st53" cx="1721.59" cy="1076.57" r="116.7"/>
  <circle class="st94" cx="1717.13" cy="1058.86" r="117.76"/>
  <circle class="st94" cx="1712.67" cy="1041.32" r="118.82"/>
  <circle class="st60" cx="1708.21" cy="1023.95" r="119.88"/>
  <circle class="st60" cx="1703.76" cy="1006.75" r="120.93"/>
  <circle class="st100" cx="1699.31" cy="989.72" r="121.99"/>
  <circle class="st100" cx="1694.86" cy="972.87" r="123.05"/>
  <circle class="st100" cx="1690.42" cy="956.18" r="124.11"/>
  <circle class="st100" cx="1685.98" cy="939.65" r="125.17"/>
  <circle class="st58" cx="1681.54" cy="923.3" r="126.22"/>
  <circle class="st4" cx="1677.11" cy="907.11" r="127.28"/>
  <circle class="st4" cx="1672.67" cy="891.09" r="128.34"/>
  <circle class="st4" cx="1668.24" cy="875.23" r="129.4"/>
  <circle class="st62" cx="1663.81" cy="859.54" r="130.45"/>
  <circle class="st62" cx="1659.38" cy="844.01" r="131.51"/>
  <circle class="st62" cx="1654.95" cy="828.64" r="132.57"/>
  <circle class="st24" cx="1650.53" cy="813.43" r="133.63"/>
  <circle class="st24" cx="1646.1" cy="798.39" r="134.69"/>
  <circle class="st24" cx="1641.67" cy="783.51" r="135.74"/>
  <circle class="st24" cx="1637.24" cy="768.79" r="136.8"/>
  <circle class="st33" cx="1632.81" cy="754.22" r="137.86"/>
  <circle class="st33" cx="1628.39" cy="739.82" r="138.92"/>
  <circle class="st33" cx="1623.96" cy="725.57" r="139.97"/>
  <circle class="st83" cx="1619.52" cy="711.48" r="141.03"/>
  <circle class="st29" cx="1615.09" cy="697.54" r="142.09"/>
  <circle class="st29" cx="1610.66" cy="683.77" r="143.15"/>
  <circle class="st29" cx="1606.22" cy="670.14" r="144.2"/>
  <circle class="st79" cx="1601.78" cy="656.67" r="145.26"/>
  <circle class="st79" cx="1597.34" cy="643.36" r="146.32"/>
  <circle class="st79" cx="1592.9" cy="630.2" r="147.38"/>
  <circle class="st1" cx="1588.45" cy="617.19" r="148.44"/>
  <circle class="st57" cx="1584" cy="604.33" r="149.49"/>
  <circle class="st57" cx="1579.55" cy="591.62" r="150.55"/>
  <circle class="st57" cx="1575.09" cy="579.06" r="151.61"/>
  <circle class="st57" cx="1570.63" cy="566.65" r="152.67"/>
  <circle class="st52" cx="1566.16" cy="554.39" r="153.72"/>
  <circle class="st52" cx="1561.69" cy="542.28" r="154.78"/>
  <circle class="st56" cx="1557.21" cy="530.31" r="155.84"/>
  <circle class="st56" cx="1552.73" cy="518.5" r="156.9"/>
  <circle class="st7" cx="1548.25" cy="506.82" r="157.96"/>
  <circle class="st7" cx="1543.75" cy="495.3" r="159.01"/>
  <circle class="st7" cx="1539.26" cy="483.91" r="160.07"/>
  <circle class="st32" cx="1534.75" cy="472.67" r="161.13"/>
  <circle class="st75" cx="1530.24" cy="461.57" r="162.19"/>
  <circle class="st75" cx="1525.72" cy="450.62" r="163.24"/>
  <circle class="st75" cx="1521.2" cy="439.81" r="164.3"/>
  <circle class="st45" cx="1516.67" cy="429.13" r="165.36"/>
  <circle class="st45" cx="1512.13" cy="418.6" r="166.42"/>
  <circle class="st92" cx="1507.58" cy="408.21" r="167.47"/>
  <circle class="st92" cx="1503.03" cy="397.95" r="168.53"/>
  <circle class="st34" cx="1498.46" cy="387.84" r="169.59"/>
  <circle class="st34" cx="1493.89" cy="377.86" r="170.65"/>
  <circle class="st34" cx="1489.31" cy="368.01" r="171.71"/>
  <circle class="st34" cx="1484.72" cy="358.31" r="172.76"/>
  <circle class="st28" cx="1480.12" cy="348.73" r="173.82"/>
  <circle class="st28" cx="1475.51" cy="339.3" r="174.88"/>
  <circle class="st28" cx="1470.89" cy="329.99" r="175.94"/>
  <circle class="st98" cx="1466.26" cy="320.82" r="176.99"/>
  <circle class="st98" cx="1461.62" cy="311.78" r="178.05"/>
  <circle class="st98" cx="1456.97" cy="302.88" r="179.11"/>
  <circle class="st98" cx="1452.31" cy="294.1" r="180.17"/>
  <circle class="st20" cx="1447.64" cy="285.45" r="181.23"/>
  <circle class="st20" cx="1442.96" cy="276.94" r="182.28"/>
  <circle class="st20" cx="1438.26" cy="268.55" r="183.34"/>
  <circle class="st71" cx="1433.55" cy="260.29" r="184.4"/>
  <circle class="st72" cx="1428.83" cy="252.15" r="185.46"/>
  <circle class="st72" cx="1424.1" cy="244.15" r="186.51"/>
  <circle class="st72" cx="1419.36" cy="236.27" r="187.57"/>
  <circle class="st73" cx="1414.6" cy="228.51" r="188.63"/>
  <circle class="st73" cx="1409.83" cy="220.88" r="189.69"/>
  <circle class="st73" cx="1405.04" cy="213.37" r="190.75"/>
  <circle class="st67" cx="1400.24" cy="205.99" r="191.8"/>
  <circle class="st76" cx="1395.43" cy="198.72" r="192.86"/>
  <circle class="st76" cx="1390.6" cy="191.58" r="193.92"/>
  <circle class="st76" cx="1385.76" cy="184.56" r="194.98"/>
  <circle class="st76" cx="1380.9" cy="177.66" r="196.03"/>
  <circle class="st25" cx="1376.03" cy="170.88" r="197.09"/>
  <circle class="st36" cx="1371.15" cy="164.22" r="198.15"/>
  <circle class="st36" cx="1366.24" cy="157.68" r="199.21"/>
  <circle class="st36" cx="1361.32" cy="151.25" r="200.26"/>
  <circle class="st37" cx="1356.39" cy="144.94" r="201.32"/>
  <circle class="st37" cx="1351.44" cy="138.75" r="202.38"/>
  <circle class="st37" cx="1346.47" cy="132.67" r="203.44"/>
  <circle class="st85" cx="1341.48" cy="126.7" r="204.5"/>
  <circle class="st63" cx="1336.48" cy="120.85" r="205.55"/>
  <circle class="st63" cx="1331.46" cy="115.11" r="206.61"/>
  <circle class="st63" cx="1326.42" cy="109.49" r="207.67"/>
  <circle class="st5" cx="1321.37" cy="103.98" r="208.73"/>
  <circle class="st5" cx="1316.29" cy="98.57" r="209.78"/>
  <circle class="st5" cx="1311.2" cy="93.28" r="210.84"/>
  <circle class="st5" cx="1306.09" cy="88.1" r="211.9"/>
  <circle class="st46" cx="1300.96" cy="83.02" r="212.96"/>
  <circle class="st46" cx="1295.81" cy="78.06" r="214.02"/>
  <circle class="st46" cx="1290.64" cy="73.2" r="215.07"/>
  <circle class="st97" cx="1285.45" cy="68.44" r="216.13"/>
  <circle class="st97" cx="1280.24" cy="63.8" r="217.19"/>
  <circle class="st97" cx="1275.01" cy="59.26" r="218.25"/>
  <circle class="st97" cx="1269.76" cy="54.82" r="219.3"/>
  <circle class="st70" cx="1264.48" cy="50.49" r="220.36"/>
  <circle class="st70" cx="1259.19" cy="46.26" r="221.42"/>
  <circle class="st70" cx="1253.88" cy="42.13" r="222.48"/>
  <circle class="st70" cx="1248.54" cy="38.1" r="223.53"/>
  <circle class="st26" cx="1243.18" cy="34.18" r="224.59"/>
  <circle class="st26" cx="1237.8" cy="30.35" r="225.65"/>
  <circle class="st3" cx="1232.4" cy="26.63" r="226.71"/>
  <circle class="st3" cx="1226.97" cy="23" r="227.77"/>
  <circle class="st54" cx="1221.52" cy="19.47" r="228.82"/>
  <circle class="st54" cx="1216.05" cy="16.04" r="229.88"/>
  <circle class="st54" cx="1210.56" cy="12.7" r="230.94"/>
  <circle class="st2" cx="1205.04" cy="9.47" r="232"/>
  <circle class="st2" cx="1199.49" cy="6.32" r="233.05"/>
  <circle class="st43" cx="1193.93" cy="3.27" r="234.11"/>
  <circle class="st90" cx="1188.33" cy=".32" r="235.17"/>
  <circle class="st49" cx="1182.72" cy="-2.54" r="236.23"/>
  <circle class="st49" cx="1177.07" cy="-5.31" r="237.29"/>
  <circle class="st49" cx="1171.41" cy="-7.99" r="238.34"/>
  <circle class="st49" cx="1165.71" cy="-10.58" r="239.4"/>
  <circle class="st84" cx="1159.99" cy="-13.07" r="240.46"/>
  <circle class="st13" cx="1154.25" cy="-15.48" r="241.52"/>
  <circle class="st13" cx="1148.48" cy="-17.8" r="242.57"/>
  <circle class="st13" cx="1142.68" cy="-20.03" r="243.63"/>
  <circle class="st61" cx="1136.85" cy="-22.17" r="244.69"/>
  <circle class="st61" cx="1131" cy="-24.23" r="245.75"/>
  <circle class="st61" cx="1125.12" cy="-26.2" r="246.8"/>
  <circle class="st15" cx="1119.21" cy="-28.08" r="247.86"/>
  <circle class="st39" cx="1113.27" cy="-29.88" r="248.92"/>
  <circle class="st39" cx="1107.31" cy="-31.6" r="249.98"/>
  <circle class="st39" cx="1101.32" cy="-33.23" r="251.04"/>
  <circle class="st87" cx="1095.29" cy="-34.78" r="252.09"/>
  <circle class="st87" cx="1089.24" cy="-36.25" r="253.15"/>
  <circle class="st87" cx="1083.16" cy="-37.64" r="254.21"/>
  <circle class="st95" cx="1077.05" cy="-38.95" r="255.27"/>
  <circle class="st47" cx="1070.91" cy="-40.18" r="256.32"/>
  <circle class="st47" cx="1064.74" cy="-41.33" r="257.38"/>
  <circle class="st47" cx="1058.54" cy="-42.4" r="258.44"/>
  <circle class="st91" cx="1052.31" cy="-43.39" r="259.5"/>
  <circle class="st91" cx="1046.05" cy="-44.31" r="260.56"/>
  <circle class="st91" cx="1039.76" cy="-45.15" r="261.61"/>
  <circle class="st40" cx="1033.43" cy="-45.92" r="262.67"/>
  <circle class="st80" cx="1027.08" cy="-46.61" r="263.73"/>
  <circle class="st80" cx="1020.69" cy="-47.22" r="264.79"/>
  <circle class="st80" cx="1014.27" cy="-47.77" r="265.84"/>
  <circle class="st80" cx="1007.81" cy="-48.24" r="266.9"/>
  <circle class="st31" cx="1001.33" cy="-48.64" r="267.96"/>
  <circle class="st78" cx="993.71" cy="-48.96" r="269.02"/>
  <circle class="st18" cx="985.37" cy="-48.91" r="270.07"/>
  <circle class="st18" cx="977.03" cy="-48.44" r="271.13"/>
  <circle class="st42" cx="968.7" cy="-47.55" r="272.19"/>
  <circle class="st42" cx="960.39" cy="-46.26" r="273.25"/>
  <circle class="st42" cx="952.09" cy="-44.55" r="274.31"/>
  <circle class="st11" cx="943.8" cy="-42.46" r="275.36"/>
  <circle class="st11" cx="935.53" cy="-39.98" r="276.42"/>
  <circle class="st41" cx="927.27" cy="-37.12" r="277.48"/>
  <circle class="st41" cx="919.04" cy="-33.89" r="278.54"/>
  <circle class="st88" cx="910.82" cy="-30.29" r="279.59"/>
  <circle class="st88" cx="902.62" cy="-26.34" r="280.65"/>
  <circle class="st88" cx="894.44" cy="-22.04" r="281.71"/>
  <circle class="st88" cx="886.29" cy="-17.4" r="282.77"/>
  <circle class="st0" cx="878.16" cy="-12.43" r="283.83"/>
  <circle class="st0" cx="870.05" cy="-7.14" r="284.88"/>
  <circle class="st0" cx="861.97" cy="-1.52" r="285.94"/>
  <circle class="st0" cx="853.92" cy="4.4" r="287"/>
  <circle class="st99" cx="845.89" cy="10.63" r="288.06"/>
  <circle class="st99" cx="837.9" cy="17.15" r="289.11"/>
  <circle class="st99" cx="829.94" cy="23.95" r="290.17"/>
  <circle class="st59" cx="822" cy="31.04" r="291.23"/>
  <circle class="st59" cx="814.1" cy="38.4" r="292.29"/>
  <circle class="st59" cx="806.24" cy="46.02" r="293.35"/>
  <circle class="st59" cx="798.41" cy="53.89" r="294.4"/>
  <circle class="st8" cx="790.62" cy="62.01" r="295.46"/>
  <circle class="st8" cx="782.86" cy="70.38" r="296.52"/>
  <circle class="st8" cx="775.15" cy="78.97" r="297.58"/>
  <circle class="st27" cx="767.47" cy="87.79" r="298.63"/>
  <circle class="st12" cx="759.84" cy="96.83" r="299.69"/>
  <circle class="st12" cx="752.25" cy="106.08" r="300.75"/>
  <circle class="st12" cx="744.7" cy="115.53" r="301.81"/>
  <circle class="st64" cx="737.2" cy="125.17" r="302.86"/>
  <circle class="st64" cx="729.74" cy="135" r="303.92"/>
  <circle class="st64" cx="722.33" cy="145.01" r="304.98"/>
  <circle class="st82" cx="714.97" cy="155.19" r="306.04"/>
  <circle class="st30" cx="707.66" cy="165.53" r="307.1"/>
  <circle class="st30" cx="700.4" cy="176.03" r="308.15"/>
  <circle class="st30" cx="693.19" cy="186.68" r="309.21"/>
  <circle class="st30" cx="686.04" cy="197.47" r="310.27"/>
  <circle class="st6" cx="678.94" cy="208.38" r="311.33"/>
  <circle class="st55" cx="671.9" cy="219.43" r="312.38"/>
  <circle class="st55" cx="664.91" cy="230.59" r="313.44"/>
  <circle class="st55" cx="657.98" cy="241.86" r="314.5"/>
  <circle class="st10" cx="651.11" cy="253.23" r="315.56"/>
  <circle class="st10" cx="644.3" cy="264.69" r="316.62"/>
  <circle class="st10" cx="637.55" cy="276.25" r="317.67"/>
  <circle class="st81" cx="630.86" cy="287.88" r="318.73"/>
  <circle class="st77" cx="624.24" cy="299.58" r="319.79"/>
  <circle class="st77" cx="617.68" cy="311.34" r="320.85"/>
  <circle class="st77" cx="611.19" cy="323.16" r="321.9"/>
  <circle class="st35" cx="604.77" cy="335.03" r="322.96"/>
  <circle class="st35" cx="598.42" cy="346.94" r="324.02"/>
  <circle class="st35" cx="592.13" cy="358.88" r="325.08"/>
  <circle class="st35" cx="585.92" cy="370.84" r="326.13"/>
  <circle class="st21" cx="579.78" cy="382.82" r="327.19"/>
  <circle class="st21" cx="573.71" cy="394.81" r="328.25"/>
  <circle class="st21" cx="567.71" cy="406.8" r="329.31"/>
  <circle class="st69" cx="561.8" cy="418.79" r="330.37"/>
  <circle class="st69" cx="555.95" cy="430.76" r="331.42"/>
  <circle class="st69" cx="550.19" cy="442.71" r="332.48"/>
  <circle class="st69" cx="544.51" cy="454.63" r="333.54"/>
  <circle class="st17" cx="538.91" cy="466.52" r="334.6"/>
  <circle class="st17" cx="533.38" cy="478.36" r="335.65"/>
  <circle class="st50" cx="527.95" cy="490.14" r="336.71"/>
  <circle class="st50" cx="522.59" cy="501.87" r="337.77"/>
  <circle class="st86" cx="517.32" cy="513.53" r="338.83"/>
  <circle class="st86" cx="512.14" cy="525.11" r="339.89"/>
  <circle class="st86" cx="507.04" cy="536.61" r="340.94"/>
  <circle class="st48" cx="502.04" cy="548.02" r="342"/>
  <circle class="st74" cx="497.12" cy="559.33" r="343.06"/>
  <circle class="st74" cx="492.3" cy="570.54" r="344.12"/>
  <circle class="st74" cx="487.56" cy="581.63" r="345.17"/>
  <circle class="st23" cx="482.92" cy="592.6" r="346.23"/>
  <circle class="st23" cx="478.38" cy="603.43" r="347.29"/>
  <circle class="st101" cx="473.93" cy="614.14" r="348.35"/>
  <circle class="st101" cx="469.58" cy="624.69" r="349.4"/>
  <circle class="st51" cx="465.32" cy="635.1" r="350.46"/>
  <circle class="st51" cx="461.17" cy="645.34" r="351.52"/>
  <circle class="st51" cx="457.11" cy="655.42" r="352.58"/>
  <circle class="st51" cx="453.16" cy="665.32" r="353.64"/>
  <circle class="st16" cx="449.31" cy="675.04" r="354.69"/>
  <circle class="st14" cx="445.57" cy="684.56" r="355.75"/>
  <circle class="st14" cx="441.93" cy="693.89" r="356.81"/>
  <circle class="st14" cx="438.39" cy="703.01" r="357.87"/>
  <circle class="st68" cx="434.97" cy="711.92" r="358.92"/>
  <circle class="st68" cx="431.65" cy="720.61" r="359.98"/>
  <circle class="st68" cx="428.45" cy="729.06" r="361.04"/>
  <circle class="st9" cx="425.35" cy="737.28" r="362.1"/>
  <circle class="st44" cx="422.37" cy="745.25" r="363.16"/>
  <circle class="st44" cx="419.5" cy="752.97" r="364.21"/>
  <circle class="st44" cx="416.74" cy="760.44" r="365.27"/>
  <circle class="st22" cx="414.11" cy="767.63" r="366.33"/>
  <circle class="st22" cx="411.59" cy="774.54" r="367.39"/>
  <circle class="st22" cx="409.18" cy="781.18" r="368.44"/>
  <circle class="st22" cx="406.9" cy="787.52" r="369.5"/>
  <circle class="st19" cx="404.74" cy="793.56" r="370.56"/>
  <circle class="st19" cx="402.7" cy="799.3" r="371.62"/>
  <circle class="st19" cx="400.78" cy="804.72" r="372.67"/>
  <circle class="st89" cx="398.98" cy="809.82" r="373.73"/>
  <circle class="st89" cx="397.32" cy="814.59" r="374.79"/>
  <circle class="st89" cx="395.78" cy="819.03" r="375.85"/>
  <circle class="st96" cx="394.36" cy="823.11" r="376.91"/>
  <circle class="st65" cx="393.08" cy="826.85" r="377.96"/>
  <circle class="st65" cx="391.92" cy="830.22" r="379.02"/>
  <circle class="st65" cx="390.9" cy="833.23" r="380.08"/>
  <circle class="st65" cx="390.01" cy="835.86" r="381.14"/>
  <circle class="st38" cx="389.25" cy="838.11" r="382.19"/>
  <circle class="st38" cx="388.63" cy="839.96" r="383.25"/>
  <circle class="st66" cx="388.15" cy="841.42" r="384.31"/>
  <circle class="st66" cx="387.8" cy="842.47" r="385.37"/>
  <circle class="st93" cx="387.59" cy="843.11" r="386.43"/>
  <circle class="st93" cx="387.52" cy="843.32" r="387.48"/>
</svg>