<?xml version="1.0" encoding="UTF-8"?>
<svg id="Layer_1" xmlns="http://www.w3.org/2000/svg" version="1.1" viewBox="0 0 1920 1080">
  <!-- Generator: Adobe Illustrator 30.2.1, SVG Export Plug-In . SVG Version: 2.1.1 Build 1)  -->
  <defs>
    <style>
      .st0 {
        fill: #f056c3;
      }

      .st1 {
        fill: #163cc7;
      }

      .st2 {
        fill: #1c3cc7;
      }

      .st3 {
        fill: #d152c4;
      }

      .st4 {
        fill: #8e4ac5;
      }

      .st5 {
        fill: #9f4cc4;
      }

      .st6 {
        fill: #8d4ac5;
      }

      .st7 {
        fill: #243dc6;
      }

      .st8 {
        fill: #8349c5;
      }

      .st9 {
        fill: #3e41c6;
      }

      .st10 {
        fill: #c951c4;
      }

      .st11 {
        fill: #4842c6;
      }

      .st12 {
        fill: #d252c4;
      }

      .st13 {
        fill: #b44fc4;
      }

      .st14 {
        fill: #d353c4;
      }

      .st15 {
        fill: #914bc5;
      }

      .st16 {
        fill: #c150c4;
      }

      .st17 {
        fill: #0339c7;
      }

      .st18 {
        fill: #904ac5;
      }

      .st19 {
        fill: #df54c3;
      }

      .st20 {
        fill: #4641c6;
      }

      .st21 {
        fill: #5643c6;
      }

      .st22 {
        fill: #6345c5;
      }

      .st23 {
        fill: #884ac5;
      }

      .st24 {
        fill: #a54dc4;
      }

      .st25 {
        fill: #0b3ac7;
      }

      .st26 {
        fill: #a74dc4;
      }

      .st27 {
        fill: #c551c4;
      }

      .st28 {
        fill: #d753c4;
      }

      .st29 {
        fill: #be50c4;
      }

      .st30 {
        fill: #0a3ac7;
      }

      .st31 {
        fill: #2c3ec6;
      }

      .st32 {
        fill: #ac4ec4;
      }

      .st33 {
        fill: #eb56c3;
      }

      .st34 {
        fill: #2a3ec6;
      }

      .st35 {
        fill: #193cc7;
      }

      .st36 {
        fill: #1b3cc7;
      }

      .st37 {
        fill: #4441c6;
      }

      .st38 {
        fill: #8649c5;
      }

      .st39 {
        fill: #8049c5;
      }

      .st40 {
        fill: #ca52c4;
      }

      .st41 {
        fill: #5043c6;
      }

      .st42 {
        fill: #3940c6;
      }

      .st43 {
        fill: #d453c4;
      }

      .st44 {
        fill: #2e3fc6;
      }

      .st45 {
        fill: #3c40c6;
      }

      .st46 {
        fill: #f357c3;
      }

      .st47 {
        fill: #343fc6;
      }

      .st48 {
        fill: #b74fc4;
      }

      .st49 {
        fill: #8c4ac5;
      }

      .st50 {
        fill: #af4ec4;
      }

      .st51 {
        fill: #4d42c6;
      }

      .st52 {
        fill: #233dc6;
      }

      .st53 {
        fill: #c050c4;
      }

      .st54 {
        fill: #0d3bc7;
      }

      .st55 {
        fill: #d553c4;
      }

      .st56 {
        fill: #db54c4;
      }

      .st57 {
        fill: #b84fc4;
      }

      .st58 {
        fill: #323fc6;
      }

      .st59 {
        fill: #5f44c6;
      }

      .st60 {
        fill: #6d46c5;
      }

      .st61 {
        fill: #7147c5;
      }

      .st62 {
        fill: #0f3bc7;
      }

      .st63 {
        fill: #4141c6;
      }

      .st64 {
        fill: #5243c6;
      }

      .st65 {
        fill: #a64dc4;
      }

      .st66 {
        fill: #b04ec4;
      }

      .st67 {
        fill: #cc52c4;
      }

      .st68 {
        fill: #5844c6;
      }

      .st69 {
        fill: #073ac7;
      }

      .st70 {
        fill: #e555c3;
      }

      .st71 {
        fill: #0e3bc7;
      }

      .st72 {
        fill: #df54c4;
      }

      .st73 {
        fill: #fc58c3;
      }

      .st74 {
        fill: #aa4ec4;
      }

      .st75 {
        fill: #bb50c4;
      }

      .st76 {
        fill: #934bc5;
      }

      .st77 {
        fill: #f256c3;
      }

      .st78 {
        fill: #223dc6;
      }

      .st79 {
        fill: #6645c5;
      }

      .st80 {
        fill: #4b42c6;
      }

      .st81 {
        fill: #8249c5;
      }

      .st82 {
        fill: #ba50c4;
      }

      .st83 {
        fill: #6045c5;
      }

      .st84 {
        fill: #6b46c5;
      }

      .st85 {
        fill: #4f43c6;
      }

      .st86 {
        fill: #b14fc4;
      }

      .st87 {
        fill: #263ec6;
      }

      .st88 {
        fill: #2d3fc6;
      }

      .st89 {
        fill: #c351c4;
      }

      .st90 {
        fill: #f957c3;
      }

      .st91 {
        fill: #4942c6;
      }

      .st92 {
        fill: #6946c5;
      }

      .st93 {
        fill: #0139c7;
      }

      .st94 {
        fill: #083ac7;
      }

      .st95 {
        fill: #5e44c6;
      }

      .st96 {
        fill: #c851c4;
      }

      .st97 {
        fill: #e255c3;
      }

      .st98 {
        fill: #8549c5;
      }

      .st99 {
        fill: #6846c5;
      }

      .st100 {
        fill: #b54fc4;
      }

      .st101 {
        fill: #a94ec4;
      }

      .st102 {
        fill: #d853c4;
      }

      .st103 {
        fill: #ed56c3;
      }

      .st104 {
        fill: #8a4ac5;
      }

      .st105 {
        fill: #6445c5;
      }

      .st106 {
        fill: #ff58c3;
      }

      .st107 {
        fill: #ae4ec4;
      }

      .st108 {
        fill: #6145c5;
      }

      .st109 {
        fill: #f457c3;
      }

      .st110 {
        fill: #f156c3;
      }

      .st111 {
        fill: #da53c4;
      }

      .st112 {
        fill: #dc54c4;
      }

      .st113 {
        fill: #273ec6;
      }

      .st114 {
        fill: #333fc6;
      }

      .st115 {
        fill: #053ac7;
      }

      .st116 {
        fill: #b34fc4;
      }

      .st117 {
        fill: #bc50c4;
      }

      .st118 {
        fill: #133bc7;
      }

      .st119 {
        fill: #ec56c3;
      }

      .st120 {
        fill: #4e42c6;
      }

      .st121 {
        fill: #a84dc4;
      }

      .st122 {
        fill: #e455c3;
      }

      .st123 {
        fill: #a24dc4;
      }

      .st124 {
        fill: #8f4ac5;
      }

      .st125 {
        fill: #5343c6;
      }

      .st126 {
        fill: #dd54c4;
      }

      .st127 {
        fill: #ce52c4;
      }

      .st128 {
        fill: #fe58c3;
      }

      .st129 {
        fill: #2b3ec6;
      }

      .st130 {
        fill: #e855c3;
      }

      .st131 {
        fill: #0439c7;
      }

      .st132 {
        fill: #143bc7;
      }

      .st133 {
        fill: #6746c5;
      }

      .st134 {
        fill: #d052c4;
      }

      .st135 {
        fill: #b24fc4;
      }

      .st136 {
        fill: #5744c6;
      }

      .st137 {
        fill: #253ec6;
      }

      .st138 {
        fill: #de54c4;
      }

      .st139 {
        fill: #5543c6;
      }

      .st140 {
        fill: #173cc7;
      }

      .st141 {
        fill: #6c46c5;
      }

      .st142 {
        fill: #1a3cc7;
      }

      .st143 {
        fill: #6545c5;
      }

      .st144 {
        fill: #3840c6;
      }

      .st145 {
        fill: #7c48c5;
      }

      .st146 {
        fill: #6e46c5;
      }

      .st147 {
        fill: #c751c4;
      }

      .st148 {
        fill: #7e48c5;
      }

      .st149 {
        fill: #113bc7;
      }

      .st150 {
        fill: #ea55c3;
      }

      .st151 {
        fill: #a34dc4;
      }

      .st152 {
        fill: #153cc7;
      }

      .st153 {
        fill: #9b4cc5;
      }

      .st154 {
        fill: #7047c5;
      }

      .st155 {
        fill: #ad4ec4;
      }

      .st156 {
        fill: #9f4cc5;
      }

      .st157 {
        fill: #103bc7;
      }

      .st158 {
        fill: #5c44c6;
      }

      .st159 {
        fill: #1d3cc7;
      }

      .st160 {
        fill: #7948c5;
      }

      .st161 {
        fill: #5b44c6;
      }

      .st162 {
        fill: #3740c6;
      }

      .st163 {
        fill: #f657c3;
      }

      .st164 {
        fill: #994cc5;
      }

      .st165 {
        fill: #313fc6;
      }

      .st166 {
        fill: #0239c7;
      }

      .st167 {
        fill: #9c4cc5;
      }

      .st168 {
        fill: #4541c6;
      }

      .st169 {
        fill: #4742c6;
      }

      .st170 {
        fill: #4041c6;
      }

      .st171 {
        fill: #7347c5;
      }

      .st172 {
        fill: #5d44c6;
      }

      .st173 {
        fill: #7a48c5;
      }

      .st174 {
        fill: #4c42c6;
      }

      .st175 {
        fill: #e955c3;
      }

      .st176 {
        fill: #8749c5;
      }

      .st177 {
        fill: #ee56c3;
      }

      .st178 {
        fill: #e655c3;
      }

      .st179 {
        fill: #7d48c5;
      }

      .st180 {
        fill: #8b4ac5;
      }

      .st181 {
        fill: #a44dc4;
      }

      .st182 {
        fill: #954bc5;
      }

      .st183 {
        fill: #213dc6;
      }

      .st184 {
        fill: #cf52c4;
      }

      .st185 {
        fill: #e054c3;
      }

      .st186 {
        fill: #a14dc4;
      }

      .st187 {
        fill: #7447c5;
      }

      .st188 {
        fill: #093ac7;
      }

      .st189 {
        fill: #e755c3;
      }

      .st190 {
        fill: #a04dc4;
      }

      .st191 {
        fill: #d953c4;
      }

      .st192 {
        fill: #fa57c3;
      }

      .st193 {
        fill: #f857c3;
      }

      .st194 {
        fill: #7b48c5;
      }

      .st195 {
        fill: #7647c5;
      }

      .st196 {
        fill: #5143c6;
      }

      .st197 {
        fill: #4241c6;
      }

      .st198 {
        fill: #183cc7;
      }

      .st199 {
        fill: #f557c3;
      }

      .st200 {
        fill: #123bc7;
      }

      .st201 {
        fill: #7f48c5;
      }

      .st202 {
        fill: #1e3dc7;
      }

      .st203 {
        fill: #fb58c3;
      }

      .st204 {
        fill: #b950c4;
      }

      .st205 {
        fill: #964bc5;
      }

      .st206 {
        fill: #bf50c4;
      }

      .st207 {
        fill: #8449c5;
      }

      .st208 {
        fill: #e355c3;
      }

      .st209 {
        fill: #4341c6;
      }

      .st210 {
        fill: #c651c4;
      }

      .st211 {
        fill: #0c3ac7;
      }

      .st212 {
        fill: #2f3fc6;
      }

      .st213 {
        fill: #0039c7;
      }

      .st214 {
        fill: #293ec6;
      }

      .st215 {
        fill: #6045c6;
      }

      .st216 {
        fill: #203dc6;
      }

      .st217 {
        fill: #cb52c4;
      }

      .st218 {
        fill: #3a40c6;
      }

      .st219 {
        fill: #7247c5;
      }

      .st220 {
        fill: #5443c6;
      }

      .st221 {
        fill: #984bc5;
      }

      .st222 {
        fill: #353fc6;
      }

      .st223 {
        fill: #7547c5;
      }

      .st224 {
        fill: #8149c5;
      }

      .st225 {
        fill: #c451c4;
      }

      .st226 {
        fill: #5a44c6;
      }

      .st227 {
        fill: #283ec6;
      }

      .st228 {
        fill: #944bc5;
      }

      .st229 {
        fill: #3640c6;
      }

      .st230 {
        fill: #d653c4;
      }

      .st231 {
        fill: #4a42c6;
      }

      .st232 {
        fill: #6245c5;
      }

      .st233 {
        fill: #ef56c3;
      }

      .st234 {
        fill: #c251c4;
      }

      .st235 {
        fill: #fd58c3;
      }

      .st236 {
        fill: #f757c3;
      }

      .st237 {
        fill: #b64fc4;
      }

      .st238 {
        fill: #6a46c5;
      }

      .st239 {
        fill: #894ac5;
      }

      .st240 {
        fill: #974bc5;
      }

      .st241 {
        fill: #3d40c6;
      }

      .st242 {
        fill: #7747c5;
      }

      .st243 {
        fill: #9a4cc5;
      }

      .st244 {
        fill: #7848c5;
      }

      .st245 {
        fill: #bd50c4;
      }

      .st246 {
        fill: #5944c6;
      }

      .st247 {
        fill: #924bc5;
      }

      .st248 {
        fill: #e154c3;
      }

      .st249 {
        fill: #6f47c5;
      }

      .st250 {
        fill: #9d4cc5;
      }

      .st251 {
        fill: #3f41c6;
      }

      .st252 {
        fill: #063ac7;
      }

      .st253 {
        fill: #203dc7;
      }

      .st254 {
        fill: #9e4cc5;
      }

      .st255 {
        fill: #303fc6;
      }

      .st256 {
        fill: #ab4ec4;
      }

      .st257 {
        fill: #3b40c6;
      }

      .st258 {
        fill: #cd52c4;
      }

      .st259 {
        fill: #1f3dc7;
      }
    </style>
  </defs>
  <circle class="st106" cx="1733.54" cy="946.05" r="123.15"/>
  <circle class="st128" cx="1731.13" cy="923.92" r="124.67"/>
  <circle class="st235" cx="1728.83" cy="902.01" r="126.2"/>
  <circle class="st73" cx="1726.64" cy="880.31" r="127.72"/>
  <circle class="st203" cx="1724.55" cy="858.84" r="129.24"/>
  <circle class="st192" cx="1722.56" cy="837.58" r="130.76"/>
  <circle class="st90" cx="1720.66" cy="816.56" r="132.29"/>
  <circle class="st193" cx="1718.86" cy="795.75" r="133.81"/>
  <circle class="st236" cx="1717.13" cy="775.18" r="135.33"/>
  <circle class="st163" cx="1715.48" cy="754.84" r="136.85"/>
  <circle class="st199" cx="1713.91" cy="734.73" r="138.38"/>
  <circle class="st109" cx="1712.4" cy="714.86" r="139.9"/>
  <circle class="st46" cx="1710.96" cy="695.22" r="141.42"/>
  <circle class="st77" cx="1709.57" cy="675.83" r="142.95"/>
  <circle class="st110" cx="1708.24" cy="656.67" r="144.47"/>
  <circle class="st0" cx="1706.95" cy="637.77" r="145.99"/>
  <circle class="st233" cx="1705.71" cy="619.11" r="147.51"/>
  <circle class="st177" cx="1704.5" cy="600.7" r="149.04"/>
  <circle class="st103" cx="1703.33" cy="582.54" r="150.56"/>
  <circle class="st119" cx="1702.19" cy="564.64" r="152.08"/>
  <circle class="st33" cx="1701.07" cy="546.99" r="153.61"/>
  <circle class="st150" cx="1699.96" cy="529.6" r="155.13"/>
  <circle class="st175" cx="1698.87" cy="512.48" r="156.65"/>
  <circle class="st130" cx="1697.79" cy="495.61" r="158.17"/>
  <circle class="st189" cx="1696.71" cy="479.01" r="159.7"/>
  <circle class="st178" cx="1695.63" cy="462.68" r="161.22"/>
  <circle class="st70" cx="1694.54" cy="446.62" r="162.74"/>
  <circle class="st122" cx="1693.44" cy="430.84" r="164.26"/>
  <circle class="st208" cx="1692.32" cy="415.32" r="165.79"/>
  <circle class="st97" cx="1691.18" cy="400.09" r="167.31"/>
  <circle class="st248" cx="1690.01" cy="385.13" r="168.83"/>
  <circle class="st185" cx="1688.81" cy="370.45" r="170.36"/>
  <circle class="st19" cx="1687.57" cy="356.06" r="171.88"/>
  <circle class="st72" cx="1686.29" cy="341.96" r="173.4"/>
  <circle class="st138" cx="1684.96" cy="328.14" r="174.92"/>
  <circle class="st126" cx="1683.58" cy="314.62" r="176.45"/>
  <circle class="st112" cx="1682.15" cy="301.38" r="177.97"/>
  <circle class="st56" cx="1680.65" cy="288.45" r="179.49"/>
  <circle class="st111" cx="1679.08" cy="275.81" r="181.01"/>
  <circle class="st191" cx="1677.44" cy="263.47" r="182.54"/>
  <circle class="st102" cx="1675.72" cy="251.43" r="184.06"/>
  <circle class="st28" cx="1673.92" cy="239.7" r="185.58"/>
  <circle class="st230" cx="1672.04" cy="228.27" r="187.11"/>
  <circle class="st55" cx="1670.06" cy="217.15" r="188.63"/>
  <circle class="st43" cx="1667.98" cy="206.35" r="190.15"/>
  <circle class="st14" cx="1665.8" cy="195.86" r="191.67"/>
  <circle class="st12" cx="1663.52" cy="185.68" r="193.2"/>
  <circle class="st3" cx="1661.12" cy="175.82" r="194.72"/>
  <circle class="st134" cx="1658.6" cy="166.28" r="196.24"/>
  <circle class="st184" cx="1655.96" cy="157.07" r="197.77"/>
  <circle class="st127" cx="1653.2" cy="148.18" r="199.29"/>
  <circle class="st258" cx="1650.3" cy="139.62" r="200.81"/>
  <circle class="st67" cx="1647.26" cy="131.38" r="202.33"/>
  <circle class="st217" cx="1644.08" cy="123.48" r="203.86"/>
  <circle class="st40" cx="1640.76" cy="115.92" r="205.38"/>
  <circle class="st10" cx="1637.28" cy="108.69" r="206.9"/>
  <circle class="st96" cx="1633.64" cy="101.8" r="208.42"/>
  <circle class="st147" cx="1629.84" cy="95.25" r="209.95"/>
  <circle class="st210" cx="1625.87" cy="89.04" r="211.47"/>
  <circle class="st27" cx="1621.73" cy="83.18" r="212.99"/>
  <circle class="st225" cx="1617.42" cy="77.67" r="214.52"/>
  <circle class="st89" cx="1612.92" cy="72.5" r="216.04"/>
  <circle class="st234" cx="1608.23" cy="67.69" r="217.56"/>
  <circle class="st16" cx="1603.35" cy="63.24" r="219.08"/>
  <circle class="st53" cx="1598.27" cy="59.14" r="220.61"/>
  <circle class="st206" cx="1592.99" cy="55.4" r="222.13"/>
  <circle class="st29" cx="1587.5" cy="52.02" r="223.65"/>
  <circle class="st245" cx="1581.8" cy="49.01" r="225.18"/>
  <circle class="st117" cx="1575.89" cy="46.36" r="226.7"/>
  <circle class="st75" cx="1569.74" cy="44.08" r="228.22"/>
  <circle class="st82" cx="1563.37" cy="42.17" r="229.74"/>
  <circle class="st204" cx="1556.77" cy="40.64" r="231.27"/>
  <circle class="st57" cx="1549.93" cy="39.48" r="232.79"/>
  <circle class="st48" cx="1542.85" cy="38.7" r="234.31"/>
  <circle class="st237" cx="1535.52" cy="38.3" r="235.83"/>
  <circle class="st100" cx="1527.23" cy="38.33" r="237.36"/>
  <circle class="st13" cx="1518.07" cy="39.22" r="238.88"/>
  <circle class="st116" cx="1509.09" cy="41.03" r="240.4"/>
  <circle class="st135" cx="1500.26" cy="43.73" r="241.93"/>
  <circle class="st86" cx="1491.59" cy="47.28" r="243.45"/>
  <circle class="st66" cx="1483.07" cy="51.66" r="244.97"/>
  <circle class="st50" cx="1474.69" cy="56.83" r="246.49"/>
  <circle class="st107" cx="1466.45" cy="62.76" r="248.02"/>
  <circle class="st155" cx="1458.34" cy="69.42" r="249.54"/>
  <circle class="st32" cx="1450.35" cy="76.78" r="251.06"/>
  <circle class="st256" cx="1442.48" cy="84.81" r="252.58"/>
  <circle class="st74" cx="1434.73" cy="93.47" r="254.11"/>
  <circle class="st101" cx="1427.08" cy="102.74" r="255.63"/>
  <circle class="st121" cx="1419.53" cy="112.59" r="257.15"/>
  <circle class="st26" cx="1412.08" cy="122.97" r="258.68"/>
  <circle class="st65" cx="1404.72" cy="133.87" r="260.2"/>
  <circle class="st24" cx="1397.44" cy="145.25" r="261.72"/>
  <circle class="st181" cx="1390.23" cy="157.08" r="263.24"/>
  <circle class="st151" cx="1383.1" cy="169.32" r="264.77"/>
  <circle class="st123" cx="1376.02" cy="181.95" r="266.29"/>
  <circle class="st186" cx="1369.01" cy="194.94" r="267.81"/>
  <circle class="st190" cx="1362.05" cy="208.25" r="269.34"/>
  <circle class="st5" cx="1355.14" cy="221.85" r="270.86"/>
  <circle class="st156" cx="1348.26" cy="235.72" r="272.38"/>
  <circle class="st254" cx="1341.42" cy="249.81" r="273.9"/>
  <circle class="st250" cx="1334.6" cy="264.11" r="275.43"/>
  <circle class="st167" cx="1327.81" cy="278.57" r="276.95"/>
  <circle class="st153" cx="1321.03" cy="293.17" r="278.47"/>
  <circle class="st243" cx="1314.27" cy="307.87" r="279.99"/>
  <circle class="st164" cx="1307.5" cy="322.64" r="281.52"/>
  <circle class="st221" cx="1300.74" cy="337.46" r="283.04"/>
  <circle class="st240" cx="1293.96" cy="352.29" r="284.56"/>
  <circle class="st205" cx="1287.17" cy="367.11" r="286.09"/>
  <circle class="st182" cx="1280.36" cy="381.87" r="287.61"/>
  <circle class="st228" cx="1273.52" cy="396.54" r="289.13"/>
  <circle class="st76" cx="1266.65" cy="411.11" r="290.65"/>
  <circle class="st247" cx="1259.74" cy="425.52" r="292.18"/>
  <circle class="st15" cx="1252.78" cy="439.77" r="293.7"/>
  <circle class="st18" cx="1245.77" cy="453.8" r="295.22"/>
  <circle class="st124" cx="1238.7" cy="467.6" r="296.75"/>
  <circle class="st4" cx="1231.58" cy="481.12" r="298.27"/>
  <circle class="st6" cx="1224.38" cy="494.35" r="299.79"/>
  <circle class="st49" cx="1217.1" cy="507.24" r="301.31"/>
  <circle class="st180" cx="1209.75" cy="519.77" r="302.84"/>
  <circle class="st104" cx="1202.3" cy="531.9" r="304.36"/>
  <circle class="st239" cx="1194.76" cy="543.61" r="305.88"/>
  <circle class="st23" cx="1187.12" cy="554.86" r="307.4"/>
  <circle class="st176" cx="1179.38" cy="565.62" r="308.93"/>
  <circle class="st38" cx="1171.52" cy="575.86" r="310.45"/>
  <circle class="st98" cx="1163.55" cy="585.55" r="311.97"/>
  <circle class="st207" cx="1155.45" cy="594.65" r="313.5"/>
  <circle class="st8" cx="1147.22" cy="603.15" r="315.02"/>
  <circle class="st81" cx="1138.85" cy="610.99" r="316.54"/>
  <circle class="st224" cx="1130.34" cy="618.17" r="318.06"/>
  <circle class="st39" cx="1121.69" cy="624.63" r="319.59"/>
  <circle class="st201" cx="1112.87" cy="630.35" r="321.11"/>
  <circle class="st148" cx="1103.9" cy="635.31" r="322.63"/>
  <circle class="st179" cx="1094.76" cy="639.46" r="324.15"/>
  <circle class="st145" cx="1085.45" cy="642.78" r="325.68"/>
  <circle class="st194" cx="1075.95" cy="645.24" r="327.2"/>
  <circle class="st173" cx="1066.28" cy="646.8" r="328.72"/>
  <circle class="st160" cx="1055.11" cy="647.49" r="330.25"/>
  <circle class="st244" cx="1043.54" cy="647.09" r="331.77"/>
  <circle class="st242" cx="1032.48" cy="645.56" r="333.29"/>
  <circle class="st195" cx="1021.9" cy="642.95" r="334.81"/>
  <circle class="st223" cx="1011.78" cy="639.3" r="336.34"/>
  <circle class="st187" cx="1002.09" cy="634.67" r="337.86"/>
  <circle class="st171" cx="992.83" cy="629.09" r="339.38"/>
  <circle class="st219" cx="983.95" cy="622.62" r="340.91"/>
  <circle class="st61" cx="975.45" cy="615.31" r="342.43"/>
  <circle class="st154" cx="967.29" cy="607.21" r="343.95"/>
  <circle class="st249" cx="959.46" cy="598.35" r="345.47"/>
  <circle class="st146" cx="951.93" cy="588.8" r="347"/>
  <circle class="st60" cx="944.68" cy="578.6" r="348.52"/>
  <circle class="st141" cx="937.68" cy="567.79" r="350.04"/>
  <circle class="st84" cx="930.93" cy="556.43" r="351.56"/>
  <circle class="st238" cx="924.38" cy="544.56" r="353.09"/>
  <circle class="st92" cx="918.02" cy="532.23" r="354.61"/>
  <circle class="st99" cx="911.83" cy="519.48" r="356.13"/>
  <circle class="st133" cx="905.79" cy="506.38" r="357.66"/>
  <circle class="st79" cx="899.86" cy="492.96" r="359.18"/>
  <circle class="st143" cx="894.04" cy="479.27" r="360.7"/>
  <circle class="st105" cx="888.29" cy="465.37" r="362.22"/>
  <circle class="st22" cx="882.6" cy="451.29" r="363.75"/>
  <circle class="st232" cx="876.94" cy="437.09" r="365.27"/>
  <circle class="st108" cx="871.28" cy="422.81" r="366.79"/>
  <circle class="st83" cx="865.62" cy="408.5" r="368.31"/>
  <circle class="st215" cx="859.92" cy="394.22" r="369.84"/>
  <circle class="st59" cx="854.16" cy="380.01" r="371.36"/>
  <circle class="st95" cx="848.32" cy="365.91" r="372.88"/>
  <circle class="st172" cx="842.37" cy="351.98" r="374.41"/>
  <circle class="st158" cx="836.3" cy="338.26" r="375.93"/>
  <circle class="st161" cx="830.08" cy="324.8" r="377.45"/>
  <circle class="st226" cx="823.69" cy="311.64" r="378.97"/>
  <circle class="st246" cx="817.1" cy="298.85" r="380.5"/>
  <circle class="st68" cx="810.3" cy="286.46" r="382.02"/>
  <circle class="st136" cx="803.26" cy="274.52" r="383.54"/>
  <circle class="st21" cx="795.96" cy="263.09" r="385.07"/>
  <circle class="st139" cx="788.38" cy="252.2" r="386.59"/>
  <circle class="st220" cx="780.49" cy="241.91" r="388.11"/>
  <circle class="st125" cx="772.26" cy="232.27" r="389.63"/>
  <circle class="st64" cx="763.69" cy="223.31" r="391.16"/>
  <circle class="st196" cx="754.74" cy="215.1" r="392.68"/>
  <circle class="st41" cx="745.4" cy="207.68" r="394.2"/>
  <circle class="st85" cx="735.64" cy="201.09" r="395.72"/>
  <circle class="st120" cx="725.43" cy="195.39" r="397.25"/>
  <circle class="st51" cx="714.76" cy="190.62" r="398.77"/>
  <circle class="st174" cx="703.61" cy="186.83" r="400.29"/>
  <circle class="st80" cx="691.94" cy="184.08" r="401.82"/>
  <circle class="st231" cx="679.75" cy="182.39" r="403.34"/>
  <circle class="st91" cx="668.76" cy="181.88" r="404.86"/>
  <circle class="st11" cx="660.53" cy="182.49" r="406.38"/>
  <circle class="st169" cx="652.59" cy="184.07" r="407.91"/>
  <circle class="st20" cx="644.93" cy="186.61" r="409.43"/>
  <circle class="st168" cx="637.53" cy="190.06" r="410.95"/>
  <circle class="st37" cx="630.41" cy="194.41" r="412.48"/>
  <circle class="st209" cx="623.55" cy="199.63" r="414"/>
  <circle class="st197" cx="616.95" cy="205.69" r="415.52"/>
  <circle class="st63" cx="610.6" cy="212.57" r="417.04"/>
  <circle class="st170" cx="604.5" cy="220.23" r="418.57"/>
  <circle class="st251" cx="598.64" cy="228.65" r="420.09"/>
  <circle class="st9" cx="593.03" cy="237.8" r="421.61"/>
  <circle class="st241" cx="587.65" cy="247.66" r="423.13"/>
  <circle class="st45" cx="582.5" cy="258.2" r="424.66"/>
  <circle class="st257" cx="577.57" cy="269.39" r="426.18"/>
  <circle class="st218" cx="572.87" cy="281.2" r="427.7"/>
  <circle class="st42" cx="568.38" cy="293.6" r="429.23"/>
  <circle class="st144" cx="564.1" cy="306.58" r="430.75"/>
  <circle class="st162" cx="560.03" cy="320.1" r="432.27"/>
  <circle class="st229" cx="556.17" cy="334.14" r="433.79"/>
  <circle class="st222" cx="552.5" cy="348.66" r="435.32"/>
  <circle class="st47" cx="549.02" cy="363.64" r="436.84"/>
  <circle class="st114" cx="545.73" cy="379.06" r="438.36"/>
  <circle class="st58" cx="542.63" cy="394.88" r="439.88"/>
  <circle class="st165" cx="539.7" cy="411.08" r="441.41"/>
  <circle class="st255" cx="536.95" cy="427.64" r="442.93"/>
  <circle class="st212" cx="534.37" cy="444.51" r="444.45"/>
  <circle class="st44" cx="531.95" cy="461.69" r="445.98"/>
  <circle class="st88" cx="529.69" cy="479.14" r="447.5"/>
  <circle class="st31" cx="527.59" cy="496.82" r="449.02"/>
  <circle class="st129" cx="525.63" cy="514.73" r="450.54"/>
  <circle class="st34" cx="523.83" cy="532.82" r="452.07"/>
  <circle class="st214" cx="522.16" cy="551.08" r="453.59"/>
  <circle class="st227" cx="520.63" cy="569.47" r="455.11"/>
  <circle class="st113" cx="519.23" cy="587.97" r="456.64"/>
  <circle class="st87" cx="517.96" cy="606.54" r="458.16"/>
  <circle class="st137" cx="516.82" cy="625.18" r="459.68"/>
  <circle class="st7" cx="515.79" cy="643.83" r="461.2"/>
  <circle class="st52" cx="514.87" cy="662.49" r="462.73"/>
  <circle class="st78" cx="514.06" cy="681.11" r="464.25"/>
  <circle class="st183" cx="513.36" cy="699.68" r="465.77"/>
  <circle class="st216" cx="512.75" cy="718.17" r="467.29"/>
  <circle class="st253" cx="512.24" cy="736.55" r="468.82"/>
  <circle class="st259" cx="511.82" cy="754.79" r="470.34"/>
  <circle class="st202" cx="511.48" cy="772.86" r="471.86"/>
  <circle class="st159" cx="511.22" cy="790.74" r="473.39"/>
  <circle class="st2" cx="511.04" cy="808.41" r="474.91"/>
  <circle class="st36" cx="510.93" cy="825.83" r="476.43"/>
  <circle class="st142" cx="510.89" cy="842.97" r="477.95"/>
  <circle class="st35" cx="510.91" cy="859.82" r="479.48"/>
  <circle class="st198" cx="510.98" cy="876.33" r="481"/>
  <circle class="st140" cx="511.11" cy="892.5" r="482.52"/>
  <circle class="st1" cx="511.28" cy="908.28" r="484.05"/>
  <circle class="st152" cx="511.5" cy="923.65" r="485.57"/>
  <circle class="st132" cx="511.75" cy="938.58" r="487.09"/>
  <circle class="st118" cx="512.04" cy="953.05" r="488.61"/>
  <circle class="st200" cx="512.35" cy="967.03" r="490.14"/>
  <circle class="st149" cx="512.69" cy="980.5" r="491.66"/>
  <circle class="st157" cx="513.05" cy="993.41" r="493.18"/>
  <circle class="st62" cx="513.43" cy="1005.76" r="494.7"/>
  <circle class="st71" cx="513.81" cy="1017.5" r="496.23"/>
  <circle class="st54" cx="514.2" cy="1028.62" r="497.75"/>
  <circle class="st211" cx="514.59" cy="1039.09" r="499.27"/>
  <circle class="st25" cx="514.97" cy="1048.87" r="500.8"/>
  <circle class="st30" cx="515.35" cy="1057.95" r="502.32"/>
  <circle class="st188" cx="515.71" cy="1066.29" r="503.84"/>
  <circle class="st94" cx="516.06" cy="1073.87" r="505.36"/>
  <circle class="st69" cx="516.38" cy="1080.65" r="506.89"/>
  <circle class="st252" cx="516.67" cy="1086.63" r="508.41"/>
  <circle class="st115" cx="516.94" cy="1091.75" r="509.93"/>
  <circle class="st131" cx="517.16" cy="1096.01" r="511.45"/>
  <circle class="st17" cx="517.34" cy="1099.37" r="512.98"/>
  <circle class="st166" cx="517.48" cy="1101.8" r="514.5"/>
  <circle class="st93" cx="517.56" cy="1103.28" r="516.02"/>
  <circle class="st213" cx="517.59" cy="1103.78" r="517.55"/>
</svg>